<?xml version="1.0" encoding="UTF-8"?>
<svg id="Layer_1" data-name="Layer 1" xmlns="http://www.w3.org/2000/svg" viewBox="0 0 210.17 130.36">
  <path d="M48.17,22.02c-12.83-17.21,3.79-30.04,17.21-13.12,12.83,16.91-4.08,29.74-17.21,13.12ZM108.24,7.15c14,16.04-2.04,30.04-16.33,14-13.71-16.33,2.33-30.04,16.33-14Z" style="fill: #c83c4e; stroke-width: 0px;"/>
  <path d="M9.68,63.72c50.74-20.12,108.19-15.46,156.59,9.62,8.75,4.08,16.33,9.62,24.2,15.16,8.75,6.71,17.5,14.29,19.54,25.08,2.04,10.79-16.04,22.75-19.54,13.41-1.17-4.37-3.79-8.75-6.42-11.96-31.2-33.54-80.78-47.53-127.14-45.2-15.75.58-31.2,5.54-46.37,10.5-2.04.58-4.67,2.33-7,1.17-2.92-1.46-3.79-4.08-3.5-6.71.88-4.37,2.62-8.46,9.62-11.08Z" style="fill: #c83c4e; stroke-width: 0px;"/>
</svg>