<?xml version="1.0" encoding="UTF-8"?>
<svg id="Layer_1" data-name="Layer 1" xmlns="http://www.w3.org/2000/svg" viewBox="0 0 245.88 135.1">
  <path d="M67.22,40.31c-13.03-17.47,3.85-30.5,17.47-13.33,13.03,17.18-4.15,30.21-17.47,13.33ZM128.23,25.2c14.21,16.29-2.07,30.5-16.58,14.21-13.92-16.58,2.37-30.5,16.58-14.21Z" style="fill: #c83c4e; stroke-width: 0px;"/>
  <path d="M15.1,63.11c2.96-4.15,9.18-9.77,14.21-6.81,18.36,9.77,30.21,16.58,47.68,21.92,36.72,11.85,77,24.88,115.5,12.73,18.66-6.52,35.54-25.76,39.98-10.36.59,2.07-.3,4.74-1.48,7.4-1.48,3.26-7.11,8-13.92,11.55-57.16,33.17-94.17,19.54-139.78,5.03-22.51-7.11-39.39-14.51-61.89-27.25-2.07-1.78-2.67-3.55-2.67-6.22s1.18-5.92,2.37-8Z" style="fill: #c83c4e; stroke-width: 0px;"/>
</svg>